<svg viewBox="0 0 800 800" xmlns="http://www.w3.org/2000/svg"><path d="M433.1590645776124,127.62865074804336 L440.13195704740025,132.7696268307668 M440.13195704740025,132.7696268307668 L444.7737289364092,138.72573894555097 M444.7737289364092,138.72573894555097 L446.81428388548636,145.15105456073422 M446.81428388548636,145.15105456073422 L446.1345757499243,151.67226000893504 M446.1345757499243,151.67226000893504 L442.77360733066894,157.91033103704842 M442.77360733066894,157.91033103704842 L436.9262948705828,163.50257111538212 M436.9262948705828,163.50257111538212 L428.932236062326,168.1237251722108 M428.932236062326,168.1237251722108 L419.2560145612193,171.50494212203262 M419.2560145612193,171.50494212203262 L408.46020819303504,173.44946074973018 M408.46020819303504,173.44946074973018 L397.172638288929,173.8441102682715 M397.172638288929,173.8441102682715 L386.04979300285146,172.6659237016455 M386.04979300285146,172.6659237016455 L375.7385563194091,169.98347013259774 M375.7385563194091,169.98347013259774 L366.83850978924795,165.9528615122287 M366.83850978924795,165.9528615122287 L359.8670094142298,160.8086216862083 M359.8670094142298,160.8086216862083 L355.2290948977374,154.8499935123341 M355.2290948977374,154.8499935123341 L353.1939789215519,148.42348592112666 M353.1939789215519,148.42348592112666 L353.8794616270674,141.90268564738153 M353.8794616270674,141.90268564738153 L357.2452173287487,135.6665241234931 M357.2452173287487,135.6665241234931 L363.09523307477264,130.07726043478522 M363.09523307477264,130.07726043478522 L371.0892918832192,125.45946779809134 M371.0892918832192,125.45946779809134 L380.76281009860355,122.08122723908946 M380.76281009860355,122.08122723908946 L391.55382918422737,120.13861811534855 M391.55382918422737,120.13861811534855 L402.83562451801157,119.74437377011338 M402.83562451801157,119.74437377011338 L413.9530308309137,120.92136836227797 M413.9530308309137,120.92136836227797 L424.2604101418851,123.60130587150383 M424.2604101418851,123.60130587150383 L433.1590645776124,127.62865074804336 M433.1590645776124,127.62865074804336 L433.05721709275315,769.2778592151037 M433.05721709275315,769.2778592151037 L424.18590158915134,765.2382442086164 M424.18590158915134,765.2382442086164 L413.9101857363156,762.5501411918235 M413.9101857363156,762.5501411918235 L402.82692926458554,761.3695602784207 M402.82692926458554,761.3695602784207 L391.5797883427732,761.7650059015398 M391.5797883427732,761.7650059015398 L380.82191727267224,763.7135340971929 M380.82191727267224,763.7135340971929 L371.1781167470758,767.1020675243897 M371.1781167470758,767.1020675243897 L363.20861963680994,771.7339286247632 M363.20861963680994,771.7339286247632 L357.3765821679125,777.3402187577058 M357.3765821679125,777.3402187577058 L354.02117506080225,783.5953751822292 M354.02117506080225,783.5953751822292 L353.33780734032655,790.1360348941337 M353.33780734032655,790.1360348941337 L355.3666787658561,796.5821122979185 M355.3666787658561,796.5821122979185 L359.9903492270903,802.5588833366578 M359.9903492270903,802.5588833366578 L366.94043184167845,807.7187846899387 M366.94043184167845,807.7187846899387 L375.81313089845185,811.7616633214705 M375.81313089845185,811.7616633214705 L386.0926804566627,814.452282306512 M386.0926804566627,814.452282306512 L397.1813425304838,815.6340551509934 M397.1813425304838,815.6340551509934 L408.4342225924605,815.2382043693146 M408.4342225924605,815.2382043693146 L419.1968515725172,813.2877667392024 M419.1968515725172,813.2877667392024 L428.843338797696,809.896257029513 M428.843338797696,809.896257029513 L436.8128359077745,805.261034631344 M436.8128359077745,805.261034631344 L442.6421866768767,799.6517682171016 M442.6421866768767,799.6517682171016 L445.9928358741642,793.3947023578496 M445.9928358741642,793.3947023578496 L446.6704644548392,786.8536374862356 M446.6704644548392,786.8536374862356 L444.6361874274992,780.4087520150936 M444.6361874274992,780.4087520150936 L440.0086832608447,774.4344969438719 M440.0086832608447,774.4344969438719 L433.05721709275315,769.2778592151037" stroke="black"  stroke-width="4"  fill="red"/>
<path d="M433.1590645776124,127.62865074804336 L440.13195704740025,132.7696268307668 M440.13195704740025,132.7696268307668 L444.7737289364092,138.72573894555097 M444.7737289364092,138.72573894555097 L446.81428388548636,145.15105456073422 M446.81428388548636,145.15105456073422 L446.1345757499243,151.67226000893504 M446.1345757499243,151.67226000893504 L442.77360733066894,157.91033103704842 M442.77360733066894,157.91033103704842 L436.9262948705828,163.50257111538212 M436.9262948705828,163.50257111538212 L428.932236062326,168.1237251722108 M428.932236062326,168.1237251722108 L419.2560145612193,171.50494212203262 M419.2560145612193,171.50494212203262 L408.46020819303504,173.44946074973018 M408.46020819303504,173.44946074973018 L397.172638288929,173.8441102682715 M397.172638288929,173.8441102682715 L386.04979300285146,172.6659237016455 M386.04979300285146,172.6659237016455 L375.7385563194091,169.98347013259774 M375.7385563194091,169.98347013259774 L366.83850978924806,165.95286151222882 M366.83850978924806,165.95286151222882 L314.51369770052594,103.32089079564872 M485.4153264861138,4.650789411344022 L503.3866078276389,17.88020690297543 M503.3866078276389,17.88020690297543 L515.3558321005805,33.20979365428002 M515.3558321005805,33.20979365428002 L520.625199977974,49.750088959931304 M520.625199977974,49.750088959931304 L518.8853837188069,66.54050143367539 M518.8853837188069,66.54050143367539 L510.2342270130523,82.60501040404 M510.2342270130523,82.60501040404 L495.17177750636125,97.00892221130852 M495.17177750636125,97.00892221130852 L474.57187196959046,108.91344440285673 M474.57187196959046,108.91344440285673 L449.6316974835766,117.62482211784936 M449.6316974835766,117.62482211784936 L421.80222274881777,122.63509077583893 M421.80222274881777,122.63509077583893 L392.7035181423546,123.65198987261368 M392.7035181423546,123.65198987261368 L364.02996907537124,120.6161845278072 M364.02996907537124,120.6161845278072 L337.45108245610726,113.70478545034456 M337.45108245610726,113.70478545034456 L314.51369770052594,103.32089079564872 M433.1590645776124,127.62865074804336 L485.4153264861138,4.650789411344022 M366.83850978924806,165.95286151222882 L359.8670094142298,160.8086216862083 M359.8670094142298,160.8086216862083 L355.2290948977374,154.8499935123341 M355.2290948977374,154.8499935123341 L353.1939789215519,148.42348592112666 M353.1939789215519,148.42348592112666 L353.8794616270674,141.90268564738153 M353.8794616270674,141.90268564738153 L357.2452173287487,135.6665241234931 M357.2452173287487,135.6665241234931 L363.09523307477264,130.07726043478522 M363.09523307477264,130.07726043478522 L371.0892918832192,125.45946779809134 M371.0892918832192,125.45946779809134 L380.76281009860355,122.08122723908946 M380.76281009860355,122.08122723908946 L391.55382918422737,120.13861811534855 M391.55382918422737,120.13861811534855 L402.83562451801157,119.74437377011338 M402.83562451801157,119.74437377011338 L413.9530308309137,120.92136836227797 M413.9530308309137,120.92136836227797 L424.2604101418851,123.60130587150383 M424.2604101418851,123.60130587150383 L433.1590645776124,127.62865074804336 M314.51369770052594,103.32089079564872 L296.5516604796984,90.06981988593878 M296.5516604796984,90.06981988593878 L284.60805080052955,74.72354026474727 M284.60805080052955,74.72354026474727 L279.3748000220259,58.17533675658069 M279.3748000220259,58.17533675658069 L281.15296187944006,41.38761242501374 M281.15296187944006,41.38761242501374 L289.83590818324126,25.335772120921774 M289.83590818324126,25.335772120921774 L304.91630867243623,10.951607269000249 M304.91630867243623,10.951607269000249 L325.51621421757034,-0.9306134670677011 M325.51621421757034,-0.9306134670677011 L350.43843773058217,-9.62224422010837 M350.43843773058217,-9.62224422010837 L378.23612286136307,-14.619844204311391 M378.23612286136307,-14.619844204311391 L407.29648185333843,-15.634055150993447 M407.29648185333843,-15.634055150993447 L435.9339138089119,-12.60615801870199 M435.9339138089119,-12.60615801870199 L462.4871858364194,-5.711451829118687 M462.4871858364194,-5.711451829118687 L485.4153264861138,4.650789411344022" stroke="black"  stroke-width="4"  fill="red"/></svg>